<svg width="86" height="85" fill="none" xmlns="http://www.w3.org/2000/svg"><g clip-path="url(#clip0)" fill="#fff"><path d="M76.943 73.266L62.632 48.478c5.294-5.134 8.59-12.316 8.59-20.255C71.222 12.66 58.562 0 43 0 27.438 0 14.777 12.66 14.777 28.223c0 7.939 3.296 15.121 8.591 20.255L9.056 73.266a1.66 1.66 0 001.87 2.433l11.032-2.972 2.943 11.04a1.66 1.66 0 003.041.403L43 58.09l15.057 26.08a1.66 1.66 0 003.042-.403l2.942-11.04 11.033 2.972a1.66 1.66 0 001.87-2.433zM18.097 28.223C18.097 14.492 29.27 3.32 43 3.32c13.73 0 24.902 11.171 24.902 24.903 0 13.73-11.171 24.902-24.902 24.902-13.731 0-24.903-11.171-24.903-24.902zm8.978 50.81l-2.337-8.77a1.66 1.66 0 00-2.036-1.175l-8.762 2.36 11.99-20.766a28.076 28.076 0 0014.266 5.624L27.075 79.032zm36.222-9.945a1.66 1.66 0 00-2.036 1.175l-2.336 8.769-13.121-22.726a28.075 28.075 0 0014.266-5.625l11.99 20.767-8.763-2.36z"/><path d="M32.6 24.837a2.97 2.97 0 00.756 3.063l2.655 2.587-.625 3.653a2.97 2.97 0 001.19 2.922 2.977 2.977 0 003.146.227l3.28-1.726 3.282 1.724a2.97 2.97 0 003.147-.228 2.97 2.97 0 001.188-2.923l-.628-3.653 2.654-2.588a2.97 2.97 0 00.755-3.064 2.97 2.97 0 00-2.413-2.033l-3.668-.532-1.641-3.323a2.97 2.97 0 00-2.68-1.666 2.97 2.97 0 00-2.68 1.667l-1.639 3.324-3.668.534a2.97 2.97 0 00-2.412 2.035zm7.421.591a1.66 1.66 0 001.25-.908L43 21.016l1.73 3.503c.242.49.71.83 1.25.908l3.866.56-2.796 2.728a1.66 1.66 0 00-.477 1.47l.661 3.85-3.458-1.817a1.66 1.66 0 00-1.545 0l-3.458 1.82.66-3.851a1.66 1.66 0 00-.478-1.47l-2.798-2.726 3.865-.563z"/><path d="M43 49.14c11.534 0 20.918-9.383 20.918-20.918a20.862 20.862 0 00-12.934-19.34 1.66 1.66 0 10-1.268 3.07 17.552 17.552 0 0110.882 16.27c0 9.704-7.895 17.598-17.598 17.598s-17.598-7.894-17.598-17.598c0-7.17 4.285-13.562 10.917-16.286a1.66 1.66 0 00-1.26-3.071 20.855 20.855 0 00-12.977 19.357c0 11.535 9.384 20.918 20.918 20.918z"/><path d="M43.022 10.625c.436 0 .864-.178 1.173-.486.309-.31.487-.738.487-1.174 0-.437-.178-.865-.487-1.174a1.673 1.673 0 00-1.173-.486c-.437 0-.865.177-1.174.486-.31.309-.487.737-.487 1.174 0 .436.176.865.487 1.174.309.308.737.486 1.174.486z"/></g><defs><clipPath id="clip0"><path fill="#fff" transform="translate(.5)" d="M0 0h85v85H0z"/></clipPath></defs></svg>