<svg width="86" height="85" fill="none" xmlns="http://www.w3.org/2000/svg"><g clip-path="url(#clip0)" fill="#fff"><path d="M34.774 27.42a4.118 4.118 0 00-4.113 4.113v1.37h2.742v-1.37c0-.756.616-1.371 1.371-1.371s1.371.615 1.371 1.37v1.372h2.742v-1.371a4.118 4.118 0 00-4.113-4.113zm-12.338 5.484v-1.371a4.118 4.118 0 00-4.113-4.113 4.118 4.118 0 00-4.113 4.113v1.37h2.742v-1.37c0-.756.615-1.371 1.37-1.371.756 0 1.372.615 1.372 1.37v1.372h2.742z"/><path d="M43.873 38.387h.498a5.49 5.49 0 005.484-5.484c0-1.796-.88-3.38-2.22-4.38l1.518-5.314c.466-1.627.702-3.31.702-5.003C49.855 8.168 41.687 0 31.648 0H11.69C7.03 0 3.242 3.79 3.242 8.448c0 .912.145 1.81.433 2.672l.677 2.033A9.088 9.088 0 00.5 20.593c0 2.06.709 4.082 1.996 5.69l2.273 2.842a5.455 5.455 0 00-1.527 3.778 5.49 5.49 0 005.484 5.484h.497c1.39 5.844 5.654 10.57 11.22 12.61l-.385 1.153c-3.352.351-6.295 2.447-7.753 5.486-2.014.263-3.58 1.972-3.58 4.058v5.483c0 1.785 1.151 3.293 2.743 3.861v11.22A2.745 2.745 0 0014.21 85h24.677a2.745 2.745 0 002.742-2.742v-11.22c1.592-.567 2.742-2.076 2.742-3.86v-5.484c0-2.086-1.566-3.795-3.58-4.06-1.458-3.04-4.4-5.136-7.754-5.485l-.384-1.153c5.566-2.039 9.831-6.765 11.22-12.609zm.498-2.742h-.07c.036-.454.07-.907.07-1.37V30.16a2.745 2.745 0 012.742 2.742 2.745 2.745 0 01-2.742 2.742zm-35.645 0a2.745 2.745 0 01-2.742-2.742 2.745 2.745 0 012.742-2.742v4.113c0 .464.034.917.07 1.371h-.07zm0-9.797v1.571c-.56 0-1.089.109-1.597.265l-2.491-3.115a6.38 6.38 0 01-1.396-3.976 6.352 6.352 0 012.835-5.297l1.538-1.027-1.338-4.017a5.672 5.672 0 01-.293-1.804 5.712 5.712 0 015.706-5.706h19.958c8.526 0 15.465 6.938 15.465 15.464 0 1.437-.2 2.866-.595 4.25L45.08 27.49c-.235-.03-.466-.072-.709-.072v-1.4a5.478 5.478 0 00-3.323-5.04l-3.624-1.554c.532-.762 1.01-1.572 1.366-2.465l-2.546-1.018a9.49 9.49 0 01-8.852 5.994h-10.44a2.745 2.745 0 01-2.742-2.742 2.745 2.745 0 012.742-2.742h.2a2.73 2.73 0 012.452 1.514l.235.47 2.453-1.228-.235-.468a5.457 5.457 0 00-4.905-3.03h-.2a5.49 5.49 0 00-5.484 5.483c0 .612.123 1.19.31 1.74l-.021.01a5.456 5.456 0 00-3.031 4.905zM32.73 54.894c.137.013.277.015.411.037l-.899 5.392H20.855l-.898-5.392c.134-.022.274-.024.411-.037l1.892 2.837a2.734 2.734 0 002.28 1.22h4.017c.918 0 1.771-.456 2.281-1.22l1.892-2.837zm-8.924 8.17h5.484v2.742h-5.484v-2.741zm-6.462-7.129L18.02 60a6.835 6.835 0 00-2.802-1.968 7.01 7.01 0 012.125-2.096zm-5.876 5.759c0-.757.615-1.371 1.37-1.371a4.118 4.118 0 014.114 4.113 4.118 4.118 0 01-4.113 4.112 1.372 1.372 0 01-1.371-1.37v-5.484zm2.742 20.564V71.152c3.124-.638 5.483-3.406 5.483-6.716 0-.47-.047-.929-.138-1.372h1.51v2.742a2.745 2.745 0 002.741 2.742h5.484a2.745 2.745 0 002.742-2.742v-2.741h1.51c-.09.442-.139.902-.139 1.37 0 3.31 2.36 6.08 5.484 6.717v11.106H14.21zm27.419-20.564v5.483c0 .757-.615 1.371-1.37 1.371a4.118 4.118 0 01-4.114-4.112 4.118 4.118 0 014.113-4.113c.755 0 1.371.614 1.371 1.37zm-3.752-3.662A6.835 6.835 0 0035.074 60l.678-4.065a6.98 6.98 0 012.125 2.097zm-7.357-4.767l-1.963 2.945H24.54l-1.963-2.945.504-1.512c1.123.222 2.28.344 3.467.344a17.84 17.84 0 003.468-.344l.504 1.512zm-3.972-3.91c-8.314 0-15.08-6.766-15.08-15.08v-8.427a2.73 2.73 0 011.515-2.452l.304-.153a5.44 5.44 0 003.665 1.434h10.44c3.08 0 5.939-1.139 8.132-3.083l4.443 1.904a2.74 2.74 0 011.662 2.52v8.256c0 8.315-6.766 15.08-15.08 15.08z"/><path d="M25.413 41.13h-2.977v2.741h2.977c2.867 0 5.562-1.116 7.59-3.143l-1.939-1.939a7.937 7.937 0 01-5.651 2.34zm57.344 21.937h-5.484V46.615a2.745 2.745 0 00-2.741-2.742H58.08a2.745 2.745 0 00-2.742 2.742v16.452h-5.484a2.745 2.745 0 00-2.742 2.741V82.26a2.745 2.745 0 002.742 2.742h32.903A2.745 2.745 0 0085.5 82.26V65.808a2.745 2.745 0 00-2.742-2.741zm-9.596 2.741h4.112v2.742h-4.112v-2.742zm-9.597-19.193h5.484v2.742h-5.484v-2.742zm-5.484 0h2.742v2.742a2.745 2.745 0 002.742 2.742h5.484a2.745 2.745 0 002.742-2.742v-2.742h2.742v16.452H58.08V46.615zm-2.742 19.193h4.113v2.742h-4.113v-2.742zm-5.484 0h2.742v2.742a2.745 2.745 0 002.742 2.742h4.113a2.745 2.745 0 002.742-2.742v-2.742h2.742V82.26h-15.08V65.808zM67.677 82.26V65.808h2.742v2.742a2.745 2.745 0 002.742 2.742h4.112a2.745 2.745 0 002.742-2.742v-2.742h2.742l.002 16.452H67.677z"/><path d="M59.451 76.775h2.742v2.742h-2.742v-2.742zm-5.483 0h2.742v2.742h-2.742v-2.742zm23.305 0h2.742v2.742h-2.742v-2.742zm-5.483 0h2.742v2.742H71.79v-2.742zM69.049 57.58h2.742v2.742h-2.742V57.58zm-5.486 0h2.742v2.742h-2.742V57.58z"/></g><defs><clipPath id="clip0"><path fill="#fff" transform="translate(.5)" d="M0 0h85v85H0z"/></clipPath></defs></svg>