<svg width="86" height="85" fill="none" xmlns="http://www.w3.org/2000/svg"><g clip-path="url(#clip0)" fill="#fff"><path d="M21.69 69.906a7.922 7.922 0 00.892-3.662v-3.155c-.402-10.563-15.543-10.555-15.941 0v3.155c0 1.32.323 2.565.893 3.662-3.485 2.355-5.626 6.337-5.626 10.536v2.899c0 .916.743 1.66 1.66 1.66h22.087a1.66 1.66 0 001.66-1.66v-2.899c0-4.199-2.141-8.18-5.626-10.535zM9.96 63.09c.235-6.163 9.068-6.158 9.3 0v3.155c-.234 6.162-9.068 6.157-9.3 0V63.09zm14.034 18.59H5.228v-1.238c0-3.205 1.695-6.242 4.43-7.958 2.715 2.283 7.192 2.283 9.906 0 2.736 1.716 4.43 4.752 4.43 7.958v1.239zM14.611 0C6.831 0 .5 6.33.5 14.111c.71 18.695 27.516 18.69 28.223 0C28.723 6.331 22.393 0 14.61 0zm0 24.902c-5.95 0-10.79-4.84-10.79-10.79.542-14.297 21.041-14.293 21.581 0 0 5.95-4.84 10.79-10.79 10.79z"/><path d="M18.626 9.478l-5.743 5.744-2.285-2.285a1.66 1.66 0 00-2.348 2.348l3.459 3.459a1.66 1.66 0 002.348 0l6.917-6.918a1.66 1.66 0 00-2.348-2.348zM83.84 0a1.66 1.66 0 00-1.66 1.66v21.582H77.2V8.301a1.66 1.66 0 00-1.66-1.66H58.938a1.66 1.66 0 00-1.66 1.66v14.941h-4.98V8.301a1.66 1.66 0 00-1.661-1.66H34.035a1.66 1.66 0 00-1.66 1.66v14.941h-1.66c-2.2.082-2.199 3.24 0 3.32H82.18v22.579H77.2V34.199a1.66 1.66 0 00-1.66-1.66H58.938a1.66 1.66 0 00-1.66 1.66v14.942h-4.98V34.199a1.66 1.66 0 00-1.661-1.66h-.83c-1.7.01-2.278 2.258-.83 3.098V49.14H35.696V35.638c1.45-.84.871-3.09-.83-3.099h-.83a1.66 1.66 0 00-1.66 1.66v14.942h-1.66c-2.201.081-2.2 3.239 0 3.32H82.18v22.578H77.2V60.097a1.66 1.66 0 00-1.66-1.66H58.938a1.66 1.66 0 00-1.66 1.66V75.04h-4.98V60.097a1.66 1.66 0 00-1.661-1.66H34.035a1.66 1.66 0 00-1.66 1.66V75.04h-1.66c-2.2.082-2.199 3.24 0 3.32H82.18v4.98c.082 2.201 3.24 2.2 3.32 0V1.66A1.66 1.66 0 0083.84 0zM35.696 23.242V9.962h13.282v13.28H35.696zm24.903 0V9.962H73.88v13.28H60.6zm0 25.899V35.859H73.88v13.282H60.6zM35.696 75.038v-13.28h13.28v13.28h-13.28zm24.902 0v-13.28H73.88v13.28H60.6z"/><path d="M43.997 34.2a1.66 1.66 0 00-1.66-1.66h-.002a1.66 1.66 0 00-1.66 1.66c.082 2.199 3.24 2.199 3.322 0z"/></g><defs><clipPath id="clip0"><path fill="#fff" transform="translate(.5)" d="M0 0h85v85H0z"/></clipPath></defs></svg>