<svg width="20" height="21" fill="none" xmlns="http://www.w3.org/2000/svg"><path fill-rule="evenodd" clip-rule="evenodd" d="M5.209 11.583c3.39 0 3.541 1.15 3.541 3.542 0 1.198 0 2.05-.503 2.675-.58.72-1.633.867-3.038.867-1.405 0-2.46-.148-3.039-.867-.503-.624-.503-1.476-.503-2.654l.625-.021h-.625c0-2.392.15-3.542 3.542-3.542zm9.166 0c3.391 0 3.542 1.15 3.542 3.542 0 1.198 0 2.05-.503 2.675-.58.72-1.634.867-3.039.867-1.405 0-2.459-.148-3.038-.867-.503-.624-.503-1.476-.503-2.654l.625-.021h-.625c0-2.392.15-3.542 3.541-3.542zm-8.995 1.25h-.17c-2.174 0-2.286.156-2.292 1.981v.711c.005.726.032 1.25.226 1.492.22.273.876.4 2.066.4 1.189 0 1.845-.128 2.065-.401.226-.281.226-.948.226-1.871 0-2.083 0-2.301-2.12-2.311zm9.167 0h-.172c-2.174 0-2.285.156-2.291 1.981v.711c.004.726.032 1.25.226 1.492.22.273.876.4 2.065.4 1.19 0 1.845-.128 2.066-.401.226-.281.226-.948.226-1.871 0-2.083 0-2.301-2.12-2.311zM5.21 2.418c3.39 0 3.541 1.15 3.541 3.541 0 1.199 0 2.051-.503 2.675-.58.72-1.633.867-3.038.867-1.405 0-2.46-.148-3.039-.867-.503-.624-.503-1.476-.503-2.654l.625-.02h-.625c0-2.392.15-3.542 3.542-3.542zm9.166 0c3.391 0 3.542 1.15 3.542 3.541 0 1.199 0 2.051-.503 2.675-.58.72-1.634.867-3.039.867-1.405 0-2.459-.148-3.038-.867-.503-.624-.503-1.476-.503-2.654l.625-.02h-.625c0-2.392.15-3.542 3.541-3.542zM5.38 3.667h-.17c-2.174 0-2.286.156-2.292 1.98v.711c.005.726.032 1.25.226 1.492.22.273.876.4 2.066.4 1.189 0 1.845-.128 2.065-.4.226-.282.226-.948.226-1.872 0-2.083 0-2.301-2.12-2.311zm9.167 0h-.172c-2.174 0-2.285.156-2.291 1.98v.711c.004.726.032 1.25.226 1.492.22.273.876.4 2.065.4 1.19 0 1.845-.128 2.066-.4.226-.282.226-.948.226-1.872 0-2.083 0-2.301-2.12-2.311z" fill="#fff"/></svg>