<svg width="229" height="50" fill="none" xmlns="http://www.w3.org/2000/svg"><g clip-path="url(#clip0)"><path opacity=".4" d="M40.906 20.621v-.248c-.05.05-.1.05-.15.1-.447.248-.844.447-1.142.596-.299.149-.796.248-1.243.397-.447.15-.596-.1-.745-.149-.15 0-.2.1-.398 0-.15-.1-.746-.05-.994-.248.199.646 1.342 1.54 2.187 1.69.894.149 1.391 0 1.391 0s.398.397.845.348c-1.143.994-1.69 1.341-2.733 1.44.348-.546.497-.794.447-.844-.05-.1-1.69.745-2.386.745-.696 0-1.49-.05-2.336-.348-.845-.347-2.236-.596-2.584-1.143 1.64.547 2.534.15 3.23.15.646 0 1.491-.498 1.491-.498s-.795-.099-1.441-.099c-.447-.795-1.441-.944-2.485-1.491 2.087.895 3.131.248 3.131.248s-.944-.497-1.143-1.143c1.044.05 2.435-1.242 2.435-1.242s-3.628-.547-5.566-2.287c1.59.05 3.529-.546 3.529-1.54 0-1.044-.05-.15-1.69-.348-1.59-.2-2.187-.547-2.187-.547s1.49-.05.944-.895c1.79.447 2.833.199 3.778-.696-2.038.2-3.132-.348-3.132-.348s1.193 0 1.69-.695c-.795-.15-1.342-.2-2.485-.299-1.143-.1-1.243-.397-1.243-.397s1.243-.398 1.144-.895c-.05-.497-.845-.05-2.038-1.292 1.044.596 1.54.248 1.54.248s-.646-.646-.994-1.093c-.347-.448-.695-.795-.795-1.342-.1-.547.15-.795-.1-1.094-.248-.298 0-.994-.347-.994-.348 0-.1.299-.348.845-.199.547-.398.795-.398 1.342s-1.391 2.237-1.839 3.53c.796-.25 1.243-.895 1.243-.895s-.447 1.093-.646 1.49c-.199.398-.497.547-.696.895-.199.348-.348.348-.696.497-.348.15-.398.299-.398.448 0 .149.1.397.547.447-.696.199-1.839.696-2.187.895-.397.198-.1.497.2.596.347.1.844.249 1.49.1.646-.15.944-.348.944-.348s-.198.248-.347.596c-.1.348-3.231 1.839-4.523 1.988 1.043.447 4.373-.149 5.218-.745-1.192 2.037-2.385 2.236-3.28 2.584-.944.348-1.54.15-1.79.448-.198.248-.248 1.49 2.635 1.54-.447.646-1.342.448-1.54.845-.25.348-.05.945.745 1.044.795.1.447.497.447.497-.248.398-.547.895-.745.994-.2.1-.746-.298-1.044-.348-.299-.1-.994-.149-1.342-.696.745 0 1.391-.397 1.292-.695-.1-.299-.944-.299-1.392-.696-.447-.398-.894-.646-1.143-1.193.597.199 1.243-.348 1.044-.646-.199-.299-.795-.1-1.54-.845.944.198 1.49-.398 1.39-.647-.099-.248-1.341-.099-1.987-1.242.447.15 1.193.05 1.193-.1 0-.149-.597-.248-.995-.994-.397-.745-.198-1.192-.497-1.54-.099-.2-.099-2.635-.198-2.635-.1 0-.348 1.193-.299 1.541 0 .348.1.696-.05.994-.148.298-.148.547-.148.796 0 .248-.249.397-.299.546-.05.2-.596.298-.596.448 0 .149.398.198.497.298.1.05-.745.596-1.292.646-.547.05-.398.199-.547.199-.15 0-.199-.1-.248-.05-.05.05-.05.398.298.348.348 0 .348.248.596.298.249.05.547 0 .547 0s-.199.348-.447.398c-.2.05-.547 0-.597.199-.05.149.199.397.547.447.348 0 .596-.1.596-.1s-.596.547-1.043.547c-.448.05-1.094 0-1.193.15-.1.149-.05.347.497.496.546.15.546.348.546.348s-.546.05-.596.15c-.05.099.1.347.547.347.497 0 .695-.149.695-.149s-.596.398-.944.646c-.348.249-1.093.2-1.292.398-.199.199-.597.1-.795.15-.2 0-.448.248-.1.546.398.298 1.292.298 1.292.298s-.497.547.1.746c-.1.447-1.342.944-1.491.994-.15.05-.497 0-.696.1-.199.099-.248.496.298.645.547.15.895.647 1.64.597-.348.298-1.54.795-1.54.795s-1.193-.696-1.74-1.54c-.547-.796-1.094-1.591-1.441-1.89 1.292.348 2.236.348 2.833.249.596-.1.994-.199.994-.348 0-.1-1.292-.298-1.491-.398.497-.248.397-.596.397-.596s-.944.248-1.888-.646c-.995-.895-2.138-2.287-2.535-3.48 1.242 1.392 2.634 2.088 3.23 2.337.597.248 1.939.447 2.784.05-1.541-.498-2.485-1.343-2.485-1.343s1.441-.596 1.193-1.64c-.995 0-2.187-.398-2.883-.994-.696-.596-.796-.547-.796-.547s1.243-.795.895-1.59c-.1-.15-.845 0-1.392-.348-.546-.348-.646-.348-.894-.646.497.1 1.391-.15 1.242-.597-.1-.497-.795-.546-1.143-1.043.15-.2.15-.348.05-.448.298-.1.397-.596.348-.845-.05-.298-.398-.944-.746-1.342-.248-.298-.397-1.54-.497-2.286-.1.1-.199.199-.248.298 0 .05-.05.1-.05.1-.15.298-.249.745-.249 1.093-.05.398-.149.845-.347 1.044-.2.248-.448.447-.498.646-.05.199-.546.248-.546.447 0 .2.1.497.248.597.1.1.398.1.398.1s-.348.496-.895.745c-.546.248-.795.497-.845.695 0 .15.15.398.497.448.348.05.348.248.597.298.248 0 .248-.248.447-.248s.298 0 .348.099c0 .05-.547.298-.646.547-.05.248-.547.348-.795.397-.299.1-.696 0-.796.15-.1.149-.695.496-.745.695 0 .2.596.2.745.348.15.15 1.044.398 1.243.398.149 0 .149.05.149.1 0 .049-.497-.1-.696.198-.248.298-.199.497-.696.447-.447-.099-.546.398-1.292.497H.398c-.2.895-.299 1.84-.348 2.834.248 0 .447 0 .596-.05.447-.15 1.243-.15 1.243-.15s.1.15.348.1c-.1.199-.845.547-1.243.944-.149.15-.497.348-.994.597 0 .646.05 1.243.1 1.889.347 0 .646-.05.646-.05s0 .398-.597.646c0 .1 0 .15.05.249.745.248 1.938.099 1.938.099s-.447 0-1.093.746c-.15.149-.298.298-.497.397.348 1.491.845 2.982 1.49 4.324.15-.099.349-.248.498-.397-.1.149-.249.348-.447.596 3.33 6.86 10.288 11.531 18.39 11.531 11.282 0 20.428-9.145 20.428-20.428zm-5.915 5.716l.646.696-.944.398-.199-.547.497-.547zM9.245 30.264a1.809 1.809 0 01-.447-.796l1.192.597s-.397.1-.745.199zm1.64-1.491l.944.05-.397.447-.547-.497zm2.038 4.622s-.746-.298-1.243-.994c.945.348 2.287.15 2.287.15l-1.044.844z" fill="#2F80ED"/><path opacity=".3" d="M40.16 19.379c-.347-.15-.248.05-.497 0-.248-.05-.695-.15-.695-.15s.596.697 1.143.846c-.348.198-1.243.248-1.243.248s.646.199.845.348c.1.1.746.05 1.243.05 0-.448-.05-.845-.1-1.293-.348 0-.546 0-.696-.05z" fill="#2F80ED"/><path d="M20.975 1.833s-.348.05-.448.15c-1.292.795-2.386 1.789-3.18 3.031-2.039 3.181-4.076 6.412-5.866 9.693-.845 1.54-1.292 3.23-1.143 5.02a6.023 6.023 0 001.54 3.43c.2.198.448.297.1.695-.397.348-.397.994-.497 1.54-.1.697-.05 1.442.05 2.138.199 1.292.298 2.585.15 3.927l-.2.944c-.894 2.585-1.391 5.219-1.093 8.002.05.448.149.895.348 1.293.348.745.248 1.441-.15 2.087-.745 1.243-.397 1.292.895 1.392.746.05 1.541.1 2.336 0 .746-.1.895-.348.746-.994-.15-.646 0-1.292.298-1.889.944-2.038 2.585-3.628 4.324-5.12.249-.198.299 0 .448.1 1.242 1.093 2.584 2.137 4.125 2.883.248.1.15.298.15.447.049 1.292.198 2.585.745 3.778.199.497.696.795 1.292.844 1.69.05 3.33 0 5.02-.05.05 0 .1-.049.15-.049-.2-.348-.498-.447-.796-.596-.348-.15-.746-.249-1.143-.398-.796-.348-1.094-.845-.845-1.64.397-1.491.596-3.032.546-4.573a5.6 5.6 0 00-.248-1.59l-.696-2.386c-.248-.944-.447-1.889-.497-2.883l-.15-2.286c-.049-.746-.099-1.69-.248-2.336 0 0 .05-.05.15-.1.149-.1.347-.149.596-.199 2.286-.695 3.38-2.137 3.082-4.075-.15-.945-.647-1.79-1.243-2.535-.696-.795-1.143-1.69-1.292-2.734-.15-.845-.299-1.69-.497-2.485-.249-1.143-.696-2.187-1.491-3.082-.299-.348-.547-.745-.398-1.242.05-.249-.05-.298-.249-.298a1.95 1.95 0 01-.646-.249c1.293.199 2.684.398 4.076.348.248 0 .596.05.745-.249.15-.298-.099-.447-.298-.745 1.243.15 1.143-.895 1.541-1.441.15-.249-.149-.448-.348-.597-.397-.298-.845-.547-1.242-.845-.497-.348-.696-.845-.547-1.441.149-.597-.199-1.094-.547-1.541-.298-.348-.447-.646-.199-1.094.15-.298.1-.596.1-.894-.1-.895-.796-1.193-1.541-.646-.795.596-1.69.696-2.634.596-.299-.05-.597-.149-.796-.398-.348-.347-.745-.596-1.242-.447-.547.15-.795.547-.945 1.044-.248.199-.05.398-.198.745z" fill="#2F80ED"/><path d="M24.702 26.089c-.497 0-.845-.1-1.093-.298-.1-.1-.348.298-1.044.05 0 0 .746-.1.696-.398-.05-.2-.05-.2-.15-.398-.099-.15-.645.199-1.043.05 0 0 .795-.2.895-.398.1-.15-.05-.298-.1-.497-.1-.15-.447.1-.944-.15 0 0 1.093-.148 1.242-.496.448-.845 1.541-1.84 1.541-1.84S23.41 23.306 23.51 24.2c.1.944 1.193 1.889 1.193 1.889zm-3.976-9.146c.149 0 .646.249 1.044.299.348 0 .745.149.944.298 0 0-.696-.199-.746-.05-.05.1.1.298.15.547 0 .05.845.298.845.398 0 0-.846-.1-.796.05.05.148.1.347.15.496 0 .05.695.199.695.249 0 0-.646 0-.646.149-.1 1.49-7.754 3.578-7.754 3.578s7.058-2.187 7.307-4.175c.149-.894-1.193-1.839-1.193-1.839z" fill="#fff"/><path d="M56.53 37.857V14.014h-4.282v-3.708H65.66v3.708h-4.216v23.843h-4.913zm10.05 5.476v-9.047h.962c.443-.25.864-.578 1.262-.987.42-.43.797-.997 1.129-1.7.332-.703.63-1.599.896-2.687.288-1.111.531-2.46.73-4.048.222-1.587.388-3.47.498-5.646l.598-8.912H84.54v23.98h2.822v9.047h-3.42l-.298-5.476H70.397l-.332 5.476H66.58zm5.544-9.047h7.768V13.912h-3.386L76.207 20c-.088 2.177-.232 4.025-.431 5.544-.2 1.497-.432 2.744-.698 3.742-.265.975-.564 1.768-.896 2.38-.31.613-.642 1.112-.996 1.497-.354.386-.708.76-1.062 1.123zm33.241 3.945c-1.969 0-3.519-.397-4.647-1.19-1.107-.794-1.882-1.87-2.324-3.231-.443-1.384-.664-2.971-.664-4.762v-9.83c0-1.882.221-3.515.664-4.898.442-1.383 1.217-2.45 2.324-3.197 1.128-.749 2.678-1.123 4.647-1.123 1.86 0 3.309.329 4.35.986 1.062.635 1.814 1.554 2.257 2.755.443 1.202.664 2.597.664 4.184v2.313h-4.714v-2.38c0-.772-.044-1.475-.133-2.11-.066-.635-.277-1.133-.631-1.496-.332-.386-.918-.579-1.759-.579-.841 0-1.461.205-1.859.613-.377.385-.62.918-.731 1.598a13.7 13.7 0 00-.166 2.245v11.973c0 .998.078 1.825.233 2.483.155.635.431 1.123.83 1.463.42.317.984.476 1.693.476.819 0 1.394-.193 1.726-.578.354-.409.575-.941.664-1.6a16.58 16.58 0 00.133-2.21v-2.483h4.714v2.21c0 1.634-.21 3.085-.631 4.355-.42 1.247-1.162 2.233-2.224 2.959-1.04.703-2.512 1.054-4.416 1.054zm10.758-.374v-27.55h4.017v17.38l7.37-17.38h3.287v27.55h-4.05V20.204l-7.404 17.653h-3.22zm18.869 0v-27.55h12.483v3.74h-7.603v7.824h1.063c1.814 0 3.33.26 4.548.782a5.281 5.281 0 012.788 2.517c.62 1.156.93 2.721.93 4.694 0 1.542-.188 2.834-.564 3.878-.377 1.02-.941 1.836-1.693 2.449-.731.612-1.616 1.043-2.656 1.292-1.041.25-2.225.374-3.553.374h-5.743zm4.88-3.401h.897c.929 0 1.682-.136 2.257-.408.576-.273.996-.749 1.262-1.429.265-.703.387-1.655.365-2.857-.022-1.429-.31-2.517-.863-3.265-.532-.749-1.561-1.123-3.088-1.123h-.83v9.082zm12.562 3.401v-27.55h4.017v17.38l7.37-17.38h3.287v27.55h-4.05V20.204l-7.403 17.653h-3.221zm18.803 0v-27.55h7.901c1.616 0 2.921.305 3.917.918 1.019.612 1.76 1.507 2.225 2.687.487 1.156.73 2.562.73 4.217 0 1.792-.299 3.243-.896 4.354-.598 1.088-1.439 1.882-2.523 2.38-1.063.5-2.324.75-3.785.75h-2.656v12.244h-4.913zm4.913-15.782h1.859c.886 0 1.572-.125 2.059-.374a2.069 2.069 0 001.029-1.259c.199-.59.299-1.372.299-2.347 0-.997-.078-1.802-.233-2.415-.133-.635-.443-1.1-.929-1.394-.465-.295-1.207-.442-2.225-.442h-1.859v8.23zm10.934 15.782l5.378-12.313c-1.107-.59-2.003-1.496-2.689-2.72-.686-1.248-1.029-2.779-1.029-4.593s.321-3.299.963-4.456c.641-1.179 1.604-2.052 2.888-2.619 1.306-.566 2.955-.85 4.947-.85h6.208v27.551h-4.881V26.701h-2.157l-4.283 11.156h-5.345zm10.69-14.694h1.095V13.81h-1.195c-1.438 0-2.523.363-3.253 1.089-.731.703-1.096 1.814-1.096 3.333 0 1.565.321 2.778.963 3.64.664.861 1.826 1.292 3.486 1.292zm10.164 14.694v-27.55h4.881V21.87h.996l4.349-11.565h4.88L217.931 23.3l5.511 14.558h-4.98l-4.647-12.687h-.996v12.687h-4.881z" fill="#020303"/></g><defs><clipPath id="clip0"><path fill="#fff" d="M0 0h229v50H0z"/></clipPath></defs></svg>