<svg width="197" height="53" fill="none" xmlns="http://www.w3.org/2000/svg"><g clip-path="url(#clip0)"><path opacity=".4" d="M47.686 24.164v-.292c-.058.059-.116.059-.174.117a33.26 33.26 0 01-1.333.699c-.348.175-.927.291-1.448.466-.522.174-.696-.117-.87-.175-.173 0-.231.117-.463 0-.174-.116-.87-.058-1.159-.291.232.757 1.565 1.805 2.55 1.98 1.042.175 1.622 0 1.622 0s.463.466.985.408c-1.333 1.165-1.97 1.572-3.187 1.689.406-.64.58-.932.522-.99-.058-.117-1.97.873-2.782.873-.81 0-1.738-.058-2.723-.407-.985-.408-2.607-.7-3.013-1.34 1.912.64 2.955.175 3.766.175.754 0 1.739-.583 1.739-.583s-.927-.116-1.68-.116c-.522-.932-1.68-1.107-2.898-1.747 2.434 1.048 3.65.29 3.65.29s-1.1-.582-1.332-1.339c1.217.059 2.84-1.456 2.84-1.456s-4.23-.64-6.49-2.679c1.854.058 4.114-.64 4.114-1.805 0-1.223-.058-.175-1.97-.408-1.855-.233-2.55-.64-2.55-.64s1.738-.059 1.1-1.05c2.087.525 3.304.234 4.404-.814-2.375.232-3.65-.408-3.65-.408s1.39 0 1.97-.816c-.927-.174-1.564-.232-2.897-.349-1.333-.117-1.448-.466-1.448-.466s1.448-.466 1.332-1.048c-.058-.583-.985-.058-2.375-1.515 1.216.7 1.796.292 1.796.292s-.753-.757-1.159-1.282c-.406-.524-.811-.932-.927-1.572-.116-.64.174-.932-.116-1.282-.29-.349 0-1.164-.406-1.164-.405 0-.115.35-.405.99-.232.64-.464.932-.464 1.572s-1.622 2.621-2.143 4.135c.927-.29 1.448-1.048 1.448-1.048s-.521 1.281-.753 1.747c-.232.466-.58.641-.811 1.049-.232.407-.406.407-.811.582-.406.175-.464.35-.464.524 0 .175.116.466.637.524-.81.233-2.144.816-2.55 1.049-.463.233-.115.582.233.699.405.116.985.29 1.738.116s1.1-.407 1.1-.407-.231.29-.405.698c-.116.408-3.766 2.155-5.273 2.33 1.217.524 5.1-.175 6.084-.873-1.39 2.387-2.78 2.62-3.824 3.028-1.1.408-1.796.175-2.086.524-.231.291-.29 1.747 3.071 1.806-.521.757-1.564.524-1.796.99-.29.407-.058 1.106.87 1.223.926.116.52.582.52.582-.29.466-.637 1.049-.869 1.165-.231.117-.869-.35-1.216-.407-.348-.117-1.16-.175-1.565-.816.87 0 1.623-.466 1.507-.815-.116-.35-1.101-.35-1.622-.816-.522-.466-1.043-.757-1.333-1.398.695.233 1.448-.407 1.217-.757-.232-.35-.927-.116-1.797-.99 1.101.233 1.739-.466 1.623-.757-.116-.291-1.565-.116-2.318-1.456.522.175 1.39.058 1.39-.116 0-.175-.695-.292-1.158-1.165-.464-.874-.232-1.398-.58-1.806-.115-.233-.115-3.087-.231-3.087s-.406 1.398-.348 1.806c0 .408.116.815-.058 1.165-.174.35-.174.64-.174.932 0 .29-.29.466-.347.64-.058.233-.696.35-.696.524 0 .175.464.233.58.35.116.058-.87.699-1.507.757-.637.058-.463.233-.637.233s-.232-.116-.29-.058a.295.295 0 00.348.407c.405 0 .405.292.695.35.29.058.637 0 .637 0s-.231.408-.52.466c-.233.058-.638 0-.696.233-.058.175.232.466.637.524.406 0 .695-.116.695-.116s-.695.64-1.216.64c-.522.058-1.275 0-1.39.175-.117.175-.059.408.579.582.637.175.637.408.637.408s-.637.058-.695.175c-.058.116.115.407.637.407.58 0 .811-.174.811-.174s-.695.466-1.1.757c-.406.291-1.275.233-1.507.466-.232.233-.696.116-.927.174-.232 0-.522.292-.116.641.463.35 1.506.35 1.506.35s-.58.64.116.873c-.116.524-1.564 1.107-1.738 1.165-.174.058-.58 0-.811.117-.232.116-.29.582.347.757.638.174 1.043.757 1.912.699-.405.35-1.796.931-1.796.931s-1.39-.815-2.028-1.805c-.637-.932-1.274-1.864-1.68-2.213 1.507.407 2.607.407 3.303.291.695-.117 1.159-.233 1.159-.408 0-.116-1.507-.35-1.739-.466.58-.29.464-.698.464-.698s-1.101.29-2.202-.758C9.676 23.99 8.344 22.358 7.88 20.96c1.449 1.631 3.07 2.447 3.766 2.738.695.291 2.26.524 3.245.058-1.796-.582-2.897-1.573-2.897-1.573s1.68-.698 1.39-1.921c-1.158 0-2.549-.466-3.36-1.165-.811-.7-.927-.641-.927-.641s1.448-.932 1.043-1.864c-.116-.174-.985 0-1.623-.407-.637-.408-.753-.408-1.043-.758.58.117 1.623-.174 1.449-.698-.116-.583-.927-.641-1.333-1.223.174-.233.174-.408.058-.525.348-.116.464-.699.406-.99-.058-.35-.464-1.106-.87-1.572-.289-.35-.463-1.806-.579-2.68-.116.117-.231.234-.29.35 0 .058-.057.116-.057.116a3.19 3.19 0 00-.29 1.282c-.058.466-.174.99-.406 1.223-.231.291-.521.524-.58.757-.057.233-.636.291-.636.524 0 .233.115.583.29.7.115.116.463.116.463.116s-.406.582-1.043.873c-.637.291-.927.583-.985.816 0 .174.174.465.58.524.405.058.405.291.695.35.29 0 .29-.292.521-.292.232 0 .348 0 .406.117 0 .058-.638.349-.754.64-.058.291-.637.408-.927.466-.347.117-.81 0-.927.175-.116.175-.81.582-.869.815 0 .233.695.233.87.408.173.175 1.216.466 1.448.466.174 0 .174.058.174.116 0 .059-.58-.116-.812.233-.29.35-.231.583-.81.524-.522-.116-.638.466-1.507.583H.464c-.232 1.048-.348 2.155-.406 3.32.29 0 .521 0 .695-.059.522-.174 1.449-.174 1.449-.174s.116.174.405.116c-.116.233-.985.64-1.448 1.107-.174.174-.58.407-1.159.699 0 .757.058 1.456.116 2.213.405 0 .753-.058.753-.058s0 .465-.695.757c0 .116 0 .174.058.29.869.292 2.26.117 2.26.117s-.522 0-1.275.874c-.174.175-.348.35-.58.466.406 1.747.985 3.494 1.739 5.067.173-.117.405-.291.579-.466-.116.175-.29.408-.521.699 3.882 8.037 11.993 13.512 21.438 13.512 13.152 0 23.814-10.716 23.814-23.937zM40.79 30.86l.753.816-1.101.466-.232-.64.58-.642zm-30.014 4.602c-.405-.408-.521-.932-.521-.932l1.39.699s-.463.116-.869.233zm1.912-1.748l1.101.059-.463.524-.638-.583zm2.376 5.417s-.87-.35-1.449-1.165c1.101.408 2.666.175 2.666.175l-1.217.99z" fill="#fff"/><path d="M44.73 20.087h-.29v-.116c.116.058.232.116.29.116 0 .058 0 0 0 0z" fill="#FEFEFE"/><path opacity=".3" d="M46.816 22.708c-.406-.175-.29.058-.58 0-.29-.059-.81-.175-.81-.175s.695.815 1.332.99c-.406.233-1.448.291-1.448.291s.753.233.985.408c.115.116.869.058 1.448.058 0-.524-.058-.99-.116-1.514-.405 0-.637 0-.811-.058z" fill="#5392F5"/><path d="M24.45 2.148s-.405.059-.52.175c-1.507.932-2.782 2.097-3.709 3.553-2.375 3.727-4.751 7.513-6.837 11.357-.985 1.805-1.506 3.786-1.332 5.883.173 1.514.753 2.853 1.796 4.018.231.233.521.35.116.816-.464.407-.464 1.164-.58 1.805-.116.815-.058 1.689.058 2.504.232 1.515.348 3.029.174 4.602l-.232 1.106c-1.043 3.029-1.622 6.116-1.274 9.377.057.524.173 1.048.405 1.514.406.874.29 1.69-.174 2.447-.869 1.456-.463 1.514 1.043 1.63.87.058 1.796.117 2.723 0 .87-.116 1.043-.407.87-1.165-.174-.757 0-1.514.347-2.213 1.101-2.388 3.013-4.251 5.041-5.999.29-.233.348 0 .522.117 1.448 1.281 3.012 2.504 4.809 3.378.29.116.173.35.173.524.058 1.514.232 3.029.87 4.426.231.583.81.932 1.506.99 1.97.059 3.882 0 5.852-.058.058 0 .116-.058.174-.058-.232-.408-.58-.524-.927-.699-.406-.175-.87-.291-1.333-.466-.927-.408-1.275-.99-.985-1.922.464-1.747.695-3.553.638-5.358 0-.64-.116-1.281-.29-1.864l-.811-2.795c-.29-1.107-.522-2.214-.58-3.378l-.174-2.68c-.058-.873-.115-1.98-.29-2.737 0 0 .059-.058.175-.116.173-.117.405-.175.695-.233 2.665-.816 3.94-2.505 3.592-4.776-.174-1.107-.753-2.097-1.448-2.97-.812-.932-1.333-1.98-1.507-3.204-.174-.99-.347-1.98-.58-2.912-.289-1.34-.81-2.563-1.737-3.61-.348-.409-.638-.874-.464-1.457.058-.291-.058-.35-.29-.35a2.264 2.264 0 01-.753-.29c1.507.232 3.129.465 4.751.407.29 0 .696.058.87-.291.173-.35-.117-.524-.348-.874 1.448.175 1.332-1.048 1.796-1.689.174-.29-.174-.524-.406-.699-.463-.35-.985-.64-1.448-.99-.58-.407-.811-.99-.638-1.689.174-.699-.231-1.281-.637-1.805-.348-.408-.521-.757-.232-1.282.174-.349.116-.698.116-1.048C32.91.052 32.1-.298 31.23.343c-.927.699-1.97.815-3.07.699-.349-.058-.696-.175-.928-.466-.405-.408-.869-.699-1.448-.524-.638.174-.927.64-1.101 1.223-.29.233-.058.466-.232.873z" fill="#fff"/><path d="M28.797 30.57c-.58 0-.986-.116-1.275-.35-.116-.116-.406.35-1.217.06 0 0 .87-.117.811-.467-.058-.233-.058-.233-.174-.466-.116-.175-.753.233-1.216.058 0 0 .927-.233 1.043-.465.115-.175-.058-.35-.116-.583-.116-.175-.522.117-1.101-.175 0 0 1.274-.174 1.448-.582.522-.99 1.797-2.155 1.797-2.155s-1.507 1.864-1.391 2.912c.116 1.107 1.39 2.213 1.39 2.213zM24.16 19.854c.175 0 .754.291 1.218.35.405 0 .869.174 1.1.349 0 0-.81-.233-.869-.058-.058.116.116.35.174.64 0 .059.985.35.985.466 0 0-.985-.116-.927.059.058.174.116.407.174.582 0 .058.811.233.811.291 0 0-.753 0-.753.175-.116 1.747-9.039 4.193-9.039 4.193s8.228-2.562 8.518-4.892c.173-1.048-1.391-2.155-1.391-2.155z" fill="#AEAEAE"/><path d="M63.619 35.993c-2.063 0-3.685-.407-4.867-1.223-1.159-.815-1.97-1.922-2.434-3.32-.463-1.42-.695-3.051-.695-4.892V16.46c0-1.934.232-3.61.695-5.032.464-1.421 1.275-2.516 2.434-3.285 1.182-.769 2.804-1.153 4.867-1.153 1.947 0 3.465.338 4.554 1.013 1.113.653 1.9 1.596 2.364 2.831.464 1.235.695 2.667.695 4.298v2.377h-4.936V15.06c0-.792-.047-1.514-.14-2.166-.069-.653-.289-1.165-.66-1.538-.347-.396-.962-.594-1.842-.594-.881 0-1.53.21-1.947.63-.394.395-.65.943-.765 1.641a13.751 13.751 0 00-.174 2.307v12.3c0 1.026.081 1.876.244 2.552.162.652.452 1.153.869 1.502.44.326 1.031.49 1.773.49.857 0 1.46-.199 1.807-.595.371-.419.603-.966.696-1.642.093-.676.139-1.433.139-2.271v-2.552h4.936v2.272c0 1.677-.22 3.168-.66 4.473a5.85 5.85 0 01-2.33 3.04c-1.089.722-2.63 1.083-4.623 1.083zm11.265-.384V7.304h4.207V25.16l7.717-17.856h3.442v28.305h-4.24V17.472L78.256 35.61h-3.372zm19.759 0V7.304h13.071v3.844h-7.96v8.037h1.112c1.9 0 3.488.268 4.763.804 1.297.512 2.271 1.374 2.92 2.585.649 1.189.973 2.796.973 4.823 0 1.584-.197 2.912-.591 3.984-.394 1.048-.985 1.887-1.773 2.516-.765.629-1.692 1.071-2.781 1.328-1.089.256-2.329.384-3.72.384h-6.014zm5.11-3.495h.939c.973 0 1.761-.14 2.364-.419.603-.28 1.043-.769 1.321-1.468.278-.722.406-1.7.382-2.935-.023-1.468-.324-2.586-.903-3.355-.557-.768-1.634-1.153-3.234-1.153h-.869v9.33zm13.155 3.495V7.304h4.206V25.16l7.718-17.856h3.442v28.305h-4.241V17.472L116.28 35.61h-3.372zm19.689 0V7.304h8.274c1.692 0 3.06.314 4.103.943 1.066.629 1.842 1.55 2.329 2.76.51 1.189.765 2.633.765 4.334 0 1.84-.313 3.331-.939 4.473-.626 1.118-1.507 1.933-2.642 2.446-1.113.512-2.434.769-3.963.769h-2.782v12.58h-5.145zm5.145-16.215h1.947c.927 0 1.646-.128 2.156-.384.533-.28.892-.71 1.077-1.293.209-.606.313-1.41.313-2.411 0-1.025-.081-1.852-.243-2.481-.139-.652-.464-1.13-.973-1.433-.487-.303-1.264-.454-2.33-.454h-1.947v8.457zm11.45 16.215l5.632-12.65c-1.159-.606-2.098-1.538-2.816-2.796-.719-1.281-1.078-2.854-1.078-4.717 0-1.864.336-3.39 1.008-4.578.673-1.212 1.681-2.108 3.025-2.69 1.367-.583 3.094-.874 5.18-.874h6.501v28.305h-5.111V24.147h-2.259l-4.485 11.462h-5.597zm11.194-15.096h1.147v-9.61h-1.251c-1.507 0-2.642.373-3.407 1.118-.765.722-1.147 1.864-1.147 3.425 0 1.607.336 2.854 1.008 3.739.695.885 1.912 1.328 3.65 1.328zm10.644 15.096V7.304h5.111v11.88h1.043l4.554-11.88h5.11l-5.354 13.348 5.771 14.957h-5.214l-4.867-13.035h-1.043V35.61h-5.111zM56.382 44.27v-3.19h-.689v-.513h2.065v.512h-.695v3.19h-.681zm2.765.05c-.272 0-.487-.055-.644-.166a.91.91 0 01-.338-.474 2.447 2.447 0 01-.096-.724V41.88c0-.278.032-.519.096-.724a.91.91 0 01.338-.474c.157-.111.372-.167.644-.167s.484.056.637.167a.879.879 0 01.331.474c.068.205.102.446.102.724v1.076a2.3 2.3 0 01-.102.724.879.879 0 01-.331.474c-.153.111-.365.167-.637.167zm0-.505c.131 0 .223-.039.274-.116a.574.574 0 00.095-.3c.013-.129.02-.261.02-.398v-1.16a3.87 3.87 0 00-.02-.397.574.574 0 00-.095-.3c-.051-.082-.143-.123-.274-.123-.132 0-.226.041-.28.122a.616.616 0 00-.103.301 5.813 5.813 0 00-.013.398v1.16c0 .136.005.268.013.396a.616.616 0 00.102.301c.055.077.149.116.28.116zm1.693 1.672v-4.92h.683v.294c.08-.094.178-.175.293-.243a.783.783 0 01.408-.103c.191 0 .342.052.452.154a.87.87 0 01.255.378c.055.15.092.303.109.461.017.154.025.286.025.398v.897c0 .26-.025.508-.076.743-.051.23-.145.418-.28.563-.133.141-.32.212-.562.212a.645.645 0 01-.35-.096 1.6 1.6 0 01-.274-.23v1.492h-.682zm1.173-1.704c.12 0 .204-.043.255-.129a.88.88 0 00.096-.358c.013-.15.02-.314.02-.493v-.897c0-.154-.01-.295-.026-.423a.682.682 0 00-.109-.314c-.055-.077-.142-.115-.261-.115a.59.59 0 00-.255.057.937.937 0 00-.21.135v2.37c.063.047.136.088.216.122.081.03.172.045.274.045zm1.672.487v-3.703h1.485v.493h-.803v3.21h-.682zm2.85.05c-.272 0-.487-.055-.644-.166a.91.91 0 01-.338-.474 2.45 2.45 0 01-.096-.724V41.88c0-.278.032-.519.096-.724a.91.91 0 01.338-.474c.157-.111.372-.167.644-.167s.484.056.637.167a.878.878 0 01.331.474c.068.205.102.446.102.724v1.076a2.3 2.3 0 01-.102.724.878.878 0 01-.331.474c-.153.111-.365.167-.637.167zm0-.505c.131 0 .223-.039.274-.116a.575.575 0 00.095-.3c.013-.129.02-.261.02-.398v-1.16c0-.14-.007-.273-.02-.397a.575.575 0 00-.095-.3c-.051-.082-.143-.123-.274-.123-.132 0-.226.041-.28.122a.617.617 0 00-.103.301 5.816 5.816 0 00-.013.398v1.16c0 .136.005.268.013.396a.617.617 0 00.102.301c.055.077.149.116.28.116zm1.694.455v-3.703h1.032c.251 0 .446.042.587.128.144.08.246.19.306.326a1.148 1.148 0 01.013.923c-.064.145-.196.248-.396.307.153.03.27.095.35.193a.737.737 0 01.173.34c.034.132.05.268.05.41 0 .213-.031.4-.095.563a.711.711 0 01-.319.378c-.148.09-.36.135-.637.135H68.23zm.669-.52h.242a.883.883 0 00.268-.038.358.358 0 00.191-.173.733.733 0 00.077-.371c0-.193-.024-.331-.07-.417-.043-.09-.102-.145-.179-.166a.906.906 0 00-.255-.032h-.274v1.198zm0-1.69h.331a.42.42 0 00.313-.116c.076-.077.114-.214.114-.41 0-.175-.044-.297-.133-.365a.583.583 0 00-.364-.103h-.261v.993zm1.976 2.21v-3.703h.682v1.53h.108c.251.005.463.024.638.058.178.03.323.086.433.167a.66.66 0 01.242.327c.051.136.077.314.077.531 0 .201-.026.372-.077.513a.72.72 0 01-.248.333 1.131 1.131 0 01-.453.186 3.449 3.449 0 01-.682.058h-.72zm.682-.404h.038c.217 0 .387-.02.51-.058a.418.418 0 00.261-.205.981.981 0 00.077-.429.893.893 0 00-.07-.39.39.39 0 00-.242-.212c-.115-.047-.283-.07-.504-.07h-.07v1.364zm1.918.404v-3.703h.682v3.703h-.682zm1.371 0v-3.703h.574v2.492l1.109-2.492h.535v3.703h-.56v-2.512L75.4 44.27h-.555zm1.128-4.107c-.306 0-.522-.083-.65-.25a1.016 1.016 0 01-.185-.621h.395a.619.619 0 00.102.358c.068.082.18.122.338.122.162 0 .274-.043.338-.128a.551.551 0 00.102-.352h.401a.992.992 0 01-.19.621c-.124.167-.34.25-.65.25zm2.91 5.048v-1.396a1.96 1.96 0 00.35-.353c.107-.136.2-.31.28-.519.082-.209.145-.467.192-.775a8.07 8.07 0 00.077-1.114l.012-.487h1.664v3.216h.446v1.428h-.497l-.057-.941h-1.912l-.058.941h-.497zm.663-1.428H80.8V41.06h-.478l-.012.134a9.24 9.24 0 01-.07 1.134 3.339 3.339 0 01-.166.737 1.47 1.47 0 01-.242.449 1.3 1.3 0 01-.287.269zm3.756.537c-.271 0-.486-.055-.643-.166a.91.91 0 01-.338-.474 2.447 2.447 0 01-.096-.724V41.88c0-.278.032-.519.096-.724a.91.91 0 01.338-.474c.157-.111.372-.167.643-.167.272 0 .485.056.638.167a.878.878 0 01.331.474c.068.205.102.446.102.724v1.076a2.3 2.3 0 01-.102.724.878.878 0 01-.331.474c-.153.111-.366.167-.638.167zm0-.505c.132 0 .224-.039.275-.116a.575.575 0 00.095-.3c.013-.129.02-.261.02-.398v-1.16a3.9 3.9 0 00-.02-.397.575.575 0 00-.095-.3c-.051-.082-.143-.123-.275-.123-.131 0-.225.041-.28.122a.615.615 0 00-.102.301 5.816 5.816 0 00-.013.398v1.16c0 .136.005.268.013.396a.615.615 0 00.102.301c.055.077.149.116.28.116zm1.676.455l.038-3.703h.503l.816 2.274.822-2.274h.504l.038 3.703h-.574v-2.21l-.682 1.844h-.21l-.682-1.832v2.198h-.573z" fill="#fff"/></g><defs><clipPath id="clip0"><path fill="#fff" d="M0 0h197v53H0z"/></clipPath></defs></svg>