<svg width="13" height="14" fill="none" xmlns="http://www.w3.org/2000/svg"><g clip-path="url(#clip0)"><path d="M11 10a.961.961 0 00-.297-.703A.961.961 0 0010 9a.961.961 0 00-.703.297A.961.961 0 009 10c0 .27.099.505.297.703A.961.961 0 0010 11c.27 0 .505-.099.703-.297A.961.961 0 0011 10zM5 4a.961.961 0 00-.297-.703A.961.961 0 004 3a.961.961 0 00-.703.297A.961.961 0 003 4c0 .27.099.505.297.703A.961.961 0 004 5c.27 0 .505-.099.703-.297A.961.961 0 005 4zm8 6a2.89 2.89 0 01-.879 2.121A2.89 2.89 0 0110 13a2.89 2.89 0 01-2.121-.879A2.89 2.89 0 017 10c0-.828.293-1.535.879-2.121A2.89 2.89 0 0110 7a2.89 2.89 0 012.121.879A2.89 2.89 0 0113 10zm-.75-8.5a.499.499 0 01-.102.297l-8.25 11A.469.469 0 013.5 13H2.25a.48.48 0 01-.352-.148.48.48 0 01-.148-.352c0-.104.034-.203.102-.297l8.25-11A.469.469 0 0110.5 1h1.25a.48.48 0 01.352.148.48.48 0 01.148.352zM7 4a2.89 2.89 0 01-.879 2.121A2.89 2.89 0 014 7a2.89 2.89 0 01-2.121-.879A2.89 2.89 0 011 4c0-.828.293-1.535.879-2.121A2.89 2.89 0 014 1a2.89 2.89 0 012.121.879A2.89 2.89 0 017 4z" fill="#fff"/></g><defs><clipPath id="clip0"><path fill="#fff" transform="translate(0 .5)" d="M0 0h13v13H0z"/></clipPath></defs></svg>