<svg width="101" height="101" fill="none" xmlns="http://www.w3.org/2000/svg"><path d="M85.511 35.468V14.666H64.753L50.001.046l-14.53 14.62H14.668v20.802L.048 50l14.62 14.752V85.51h20.803L50 100.13l14.752-14.62H85.51V64.751l14.62-14.752-14.62-14.53zm-49.51-7.331c4.328 0 7.817 3.489 7.817 7.861a7.818 7.818 0 01-7.817 7.818c-4.373 0-7.862-3.49-7.862-7.818A7.823 7.823 0 0136 28.137zm28.222 43.946c-4.328 0-7.817-3.534-7.817-7.862a7.817 7.817 0 017.817-7.818c4.328 0 7.862 3.49 7.862 7.818a7.862 7.862 0 01-7.862 7.862zm-29.68.132l-6.625-6.625 37.674-37.674 6.625 6.625-37.674 37.674z" fill="#fff"/></svg>